<?xml version="1.0" standalone="no"?>
<!DOCTYPE svg PUBLIC "-//W3C//DTD SVG 20010904//EN"
 "http://www.w3.org/TR/2001/REC-SVG-20010904/DTD/svg10.dtd">
<svg version="1.0" xmlns="http://www.w3.org/2000/svg"
 width="500.000000pt" height="500.000000pt" viewBox="0 0 500.000000 500.000000"
 preserveAspectRatio="xMidYMid meet">
<metadata>
Created by potrace 1.16, written by Peter Selinger 2001-2019
</metadata>
<g transform="translate(0.000000,500.000000) scale(0.100000,-0.100000)"
fill="#000000" stroke="none">
<path d="M0 2500 l0 -2500 2500 0 2500 0 0 2500 0 2500 -2500 0 -2500 0 0
-2500z m2753 1319 c560 -113 980 -543 1072 -1098 27 -161 17 -398 -23 -553
-117 -451 -448 -803 -890 -947 -185 -61 -436 -78 -633 -45 -491 83 -900 436
-1054 908 -51 159 -60 221 -60 426 1 166 4 196 27 290 45 179 95 295 195 450
68 104 248 287 353 357 160 107 359 188 534 217 130 22 359 20 479 -5z"/>
<path d="M1840 3430 c-209 -21 -350 -104 -395 -230 -30 -86 -14 -179 42 -241
73 -81 197 -121 506 -164 230 -32 332 -61 386 -113 69 -66 68 -158 -2 -228
-77 -76 -230 -111 -441 -101 -169 8 -260 37 -340 108 -38 33 -80 112 -90 172
l-7 37 -54 0 c-30 0 -55 -4 -55 -8 0 -25 33 -129 54 -170 53 -104 177 -187
326 -218 99 -21 328 -21 434 0 153 30 273 107 312 201 20 49 18 151 -5 200
-54 117 -187 172 -516 215 -275 36 -387 72 -433 141 -20 29 -23 44 -20 95 5
77 36 122 111 158 147 72 430 75 568 6 87 -44 130 -99 159 -205 l17 -60 51 -3
c60 -3 59 -4 37 83 -43 165 -156 269 -335 309 -85 19 -216 25 -310 16z"/>
<path d="M2770 2045 l0 -575 50 0 50 0 2 258 3 257 325 5 c281 5 332 8 374 24
99 36 152 82 186 159 63 143 16 309 -109 384 -95 57 -149 63 -535 63 l-346 0
0 -575z m716 474 c130 -22 194 -93 194 -214 0 -114 -53 -180 -165 -210 -47
-12 -120 -15 -352 -15 l-293 0 0 225 0 225 277 0 c155 0 304 -5 339 -11z"/>
</g>
</svg>
